<svg width="57" height="104" viewBox="0 0 57 104" fill="none" xmlns="http://www.w3.org/2000/svg">
<path d="M32.7102 64.1343H24.1982C24.2169 64.202 26.9904 68.1569 24.1982 72.0603H32.7102C29.904 68.1382 32.6892 64.2114 32.7102 64.1343Z" fill="#FF8B00"/>
<path d="M24.1982 64.1343C24.2029 64.1507 24.3943 64.4332 24.6255 64.9071C24.6675 64.9094 27.3126 65.0752 28.5873 67.3327C29.5982 69.1234 29.0192 71.2385 28.725 72.0603H32.7102C29.904 68.1382 32.6892 64.2114 32.7102 64.1343H24.1982Z" fill="#F08300"/>
<path d="M45.1162 46.9377C47.4275 44.337 50.2313 42.6538 52.8297 41.3207C53.6398 40.9051 54.1418 40.0974 54.1418 39.2102V25.9357C54.1418 25.0812 52.8951 25.4804 52.1504 25.3871C51.2095 25.3871 51.7558 26.7995 51.6017 29.1294C51.6017 30.843 50.208 32.2368 48.4944 32.2368H45.1559V29.4656H48.4944C49.092 29.4656 48.7138 28.6555 48.8306 25.9357C48.8306 24.1054 50.32 22.6182 52.148 22.6182H53.5908C55.4211 22.6182 56.9083 24.1077 56.9083 25.9357V39.2102C56.9083 45.2171 50.285 44.6148 44.759 52.4381C44.3225 53.0544 42.6509 54.5999 42.6509 54.5999C44.0423 52.3423 44.9178 49.7346 45.1115 46.9377H45.1162Z" fill="#E87E00"/>
<path d="M11.7944 46.9377C9.48314 44.337 6.67929 42.6538 4.08088 41.3207C3.27077 40.9051 2.76884 40.0974 2.76884 39.2102V25.9357C2.76884 25.0812 4.01551 25.4804 4.76025 25.3871C5.70109 25.3871 5.1548 26.7995 5.30888 29.1294C5.30888 30.843 6.70264 32.2368 8.41623 32.2368H11.7547V29.4656H8.41623C7.81857 29.4656 8.19678 28.6555 8.08005 25.9357C8.08005 24.1054 6.59057 22.6182 4.76258 22.6182H3.3198C1.48947 22.6182 0 24.1077 0 25.9357V39.2102C0 45.2171 6.62326 44.6148 12.1493 52.4381C12.5858 53.0544 14.2574 54.5999 14.2574 54.5999C12.866 52.3423 11.9905 49.7346 11.7967 46.9377H11.7944Z" fill="#FF8B00"/>
<path d="M37.4238 19.0766H19.4848L14.9253 23.3466H41.9833L37.4238 19.0766Z" fill="#FFEA01"/>
<path d="M44.1775 23.3489H12.7328C11.234 23.3489 10.02 24.5629 10.02 26.0617H46.8903C46.8903 24.5629 45.6764 23.3489 44.1775 23.3489Z" fill="#FFB600"/>
<path d="M10.02 26.0618V26.7551C10.02 27.6166 10.7181 28.3147 11.5772 28.3147H45.3308C46.1923 28.3147 46.8903 27.6166 46.8903 26.7551V26.0618H10.02Z" fill="#D67205"/>
<path d="M45.1159 46.9377C44.9198 49.7346 44.0444 52.3423 42.6553 54.5999C42.6553 54.5999 44.3292 53.0544 44.7634 52.4381C44.9549 52.1672 45.1463 51.9081 45.3401 51.656C45.9914 49.7743 46.3253 47.7852 46.3253 45.7401V45.6957C45.9097 46.0856 45.5058 46.4965 45.1159 46.9354V46.9377Z" fill="#CC6F00"/>
<path d="M46.3257 29.4656H45.1584V32.2368H46.3257V29.4656Z" fill="#CC6F00"/>
<path d="M11.7948 46.9378C11.4049 46.4989 11.001 46.0856 10.5854 45.6981V45.7424C10.5854 47.7852 10.9193 49.7766 11.5707 51.6583C11.7644 51.9081 11.9559 52.1696 12.1473 52.4381C12.5839 53.0544 14.2554 54.5999 14.2554 54.5999C12.864 52.3424 11.9885 49.7346 11.7948 46.9378Z" fill="#FF5E00"/>
<path d="M11.7525 29.4656H10.5852V32.2368H11.7525V29.4656Z" fill="#FF5E00"/>
<path d="M11.7524 28.3123V45.7424C11.7524 53.3882 16.8279 59.8504 23.7943 61.9398H33.1187C40.0851 59.848 45.1606 53.3882 45.1606 45.7424V28.3123H11.7524Z" fill="#FFB600"/>
<g style="mix-blend-mode:screen">
<path d="M21.1189 60.8799C25.9351 56.813 29.0822 50.0964 29.0822 42.4973C29.0822 37.1184 27.504 32.1807 24.8752 28.3123H11.7524V45.7424C11.7524 52.3703 15.5672 58.1087 21.1189 60.8799Z" fill="#FFB600"/>
</g>
<path d="M23.7942 61.9398V64.132H33.1186V61.9398H23.7942Z" fill="#D67205"/>
<path d="M23.7942 62.6402H33.1186V61.9398H23.7942V62.6402Z" fill="#BD6504"/>
<path d="M33.1164 72.0604H23.7967C22.9352 72.0604 22.2395 72.7584 22.2395 73.6175V73.8673H34.6759V73.6175C34.6759 72.7561 33.9779 72.0604 33.1187 72.0604H33.1164Z" fill="#D67205"/>
<path d="M20.4678 73.8673V90.5667H36.4434V73.8673H20.4678Z" fill="#FFB10F"/>
<g style="mix-blend-mode:screen">
<path d="M20.4678 89.4157C20.9277 89.4975 21.3969 89.5395 21.8755 89.5395C27.2591 89.5395 31.6225 84.1816 31.6225 77.5747C31.6225 76.2813 31.4544 75.0346 31.1462 73.8673H20.4678V89.4157Z" fill="#FFB10F"/>
</g>
<path d="M38.1871 90.5668H18.7212C18.0838 90.5668 17.5679 91.0827 17.5679 91.7201V92.0306H39.338V91.7201C39.338 91.0827 38.8221 90.5668 38.1847 90.5668H38.1871Z" fill="#FFDC01"/>
<path d="M15.3687 92.0283V101.824H41.5418V92.0283H15.3687Z" fill="#893003"/>
<g style="mix-blend-mode:screen">
<path d="M15.3687 92.0282V101.577C15.8402 101.605 16.3165 101.619 16.7974 101.619C24.9335 101.619 31.7179 97.4935 33.233 92.0259H15.371L15.3687 92.0282Z" fill="#893003"/>
</g>
<path d="M42.4732 101.826H14.437C13.781 102.482 13.4121 102.851 12.7561 103.507V104H44.1565V103.507C43.5004 102.851 43.1316 102.482 42.4755 101.826H42.4732Z" fill="#FFB600"/>
<path d="M30.3079 15.9599C30.2589 15.9599 26.5212 15.9599 26.6053 15.9599C25.4473 15.9599 24.5088 16.8984 24.5088 18.0564V19.0766H32.4044V18.0564C32.4044 16.8984 31.4659 15.9599 30.3079 15.9599Z" fill="#FF8B00"/>
<g style="mix-blend-mode:screen" opacity="0.69">
<path d="M29.0843 17.2253C29.0843 16.721 27.6835 16.2938 25.7434 16.1443C25.015 16.4735 24.5061 17.2066 24.5061 18.0564V18.3599C27.0602 18.3249 29.0819 17.8299 29.0819 17.2229L29.0843 17.2253Z" fill="#FF8B00"/>
</g>
<path d="M26.584 14.181V15.9599H30.324V14.181H26.584Z" fill="#D67205"/>
<path d="M26.584 14.9794C27.184 15.1265 27.8096 15.2035 28.454 15.2035C29.0983 15.2035 29.724 15.1265 30.324 14.9794V14.181H26.584V14.9794Z" fill="#BD6504"/>
<path d="M28.6561 14.4994C32.6052 14.3898 35.7177 11.0995 35.608 7.15044C35.4984 3.20135 32.2082 0.0888425 28.2591 0.198461C24.31 0.308079 21.1975 3.59831 21.3071 7.5474C21.4167 11.4965 24.707 14.609 28.6561 14.4994Z" fill="#D67205"/>
<path d="M35.4135 7.34988C35.4135 8.07127 34.7761 8.68528 34.566 9.33663C34.3466 10.0113 34.4936 10.8798 34.0851 11.4424C33.6719 12.0097 32.7987 12.1358 32.2314 12.549C31.6688 12.9576 31.2812 13.7514 30.6065 13.9708C29.9552 14.1833 29.1778 13.7747 28.4564 13.7747C27.735 13.7747 26.9576 14.1833 26.3062 13.9708C25.6315 13.7514 25.244 12.9576 24.6813 12.549C24.114 12.1358 23.2409 12.0097 22.8277 11.4424C22.4191 10.8798 22.5662 10.0113 22.3467 9.33663C22.1343 8.68528 21.4993 8.07361 21.4993 7.35222C21.4993 6.63083 22.1366 6.01683 22.3467 5.36781C22.5662 4.69311 22.4191 3.82464 22.8277 3.262C23.2409 2.69469 24.114 2.56862 24.6813 2.1554C25.244 1.74684 25.6315 0.953081 26.3062 0.733629C26.9576 0.52118 27.735 0.929735 28.4564 0.929735C29.1778 0.929735 29.9552 0.52118 30.6065 0.733629C31.2812 0.953081 31.6688 1.74684 32.2314 2.1554C32.7987 2.56862 33.6719 2.69469 34.0851 3.262C34.4936 3.82464 34.3466 4.69077 34.566 5.36781C34.7785 6.01916 35.4135 6.63083 35.4135 7.35222V7.34988Z" fill="#FF8B00"/>
<path d="M30.189 13.5273C29.9696 13.5273 29.7151 13.4712 29.4466 13.4129C29.1291 13.3428 28.8 13.2705 28.4544 13.2705C28.1089 13.2705 27.7821 13.3428 27.4622 13.4129C27.1938 13.4712 26.9369 13.5273 26.7198 13.5273C26.6194 13.5273 26.5331 13.5156 26.4584 13.4923C26.1805 13.4012 25.9307 13.1187 25.6669 12.8176C25.4568 12.5794 25.242 12.3343 24.9759 12.1405C24.7074 11.9444 24.4039 11.8137 24.1097 11.6853C23.7455 11.5265 23.4 11.3771 23.2319 11.146C23.0662 10.9172 23.0288 10.546 22.9915 10.1514C22.9611 9.83161 22.9284 9.50243 22.8234 9.18259C22.723 8.87442 22.5596 8.5966 22.3985 8.32812C22.193 7.9826 21.9993 7.65576 21.9993 7.35226C21.9993 7.04876 22.193 6.72425 22.3985 6.3764C22.5572 6.10792 22.723 5.8301 22.8234 5.52194C22.9284 5.2021 22.9588 4.87058 22.9915 4.55308C23.0312 4.15853 23.0662 3.78733 23.2319 3.55854C23.4 3.32741 23.7455 3.178 24.1097 3.01925C24.4039 2.89084 24.7051 2.7601 24.9759 2.564C25.242 2.37023 25.4591 2.12509 25.6669 1.88696C25.9307 1.5858 26.1805 1.30331 26.4584 1.21227C26.5331 1.18892 26.6194 1.17725 26.7198 1.17725C26.9393 1.17725 27.1938 1.23328 27.4622 1.29164C27.7797 1.36168 28.1089 1.43405 28.4544 1.43405C28.8 1.43405 29.1268 1.36168 29.4466 1.29164C29.7151 1.23328 29.9696 1.17725 30.189 1.17725C30.2894 1.17725 30.3758 1.18892 30.4505 1.21227C30.7283 1.30331 30.9781 1.5858 31.2419 1.88696C31.4521 2.12509 31.6668 2.37023 31.933 2.564C32.2015 2.7601 32.505 2.89084 32.7991 3.01925C33.1633 3.178 33.5088 3.32741 33.6769 3.55854C33.8427 3.78733 33.88 4.15853 33.9174 4.55308C33.9477 4.87292 33.9804 5.2021 34.0855 5.52194C34.1859 5.8301 34.3493 6.10792 34.5104 6.3764C34.7158 6.72192 34.9096 7.04876 34.9096 7.35226C34.9096 7.65576 34.7158 7.98027 34.5104 8.32812C34.3516 8.5966 34.1859 8.87442 34.0855 9.18259C33.9804 9.50243 33.9501 9.83394 33.9174 10.1514C33.88 10.546 33.8427 10.9172 33.6769 11.146C33.5088 11.3771 33.1633 11.5265 32.7991 11.6853C32.505 11.8137 32.2038 11.9444 31.933 12.1405C31.6668 12.3343 31.4521 12.5794 31.2419 12.8176C30.9781 13.1187 30.7283 13.4012 30.4505 13.4923C30.3758 13.5156 30.2894 13.5273 30.189 13.5273Z" fill="#FFB600"/>
<path d="M28.4564 12.4184C31.2556 12.4184 33.5248 10.1491 33.5248 7.34994C33.5248 4.55073 31.2556 2.28152 28.4564 2.28152C25.6571 2.28152 23.3879 4.55073 23.3879 7.34994C23.3879 10.1491 25.6571 12.4184 28.4564 12.4184Z" fill="#FF8B00"/>
<path d="M31.8602 10.7554C33.7411 8.87454 33.7411 5.82504 31.8602 3.94417C29.9793 2.06329 26.9298 2.06329 25.0489 3.94417C23.1681 5.82504 23.1681 8.87454 25.0489 10.7554C26.9298 12.6363 29.9793 12.6363 31.8602 10.7554Z" fill="#D67205"/>
<path d="M28.4565 11.7156C30.8676 11.7156 32.8222 9.76103 32.8222 7.34992C32.8222 4.93881 30.8676 2.98422 28.4565 2.98422C26.0454 2.98422 24.0908 4.93881 24.0908 7.34992C24.0908 9.76103 26.0454 11.7156 28.4565 11.7156Z" fill="#FFDC01"/>
<path d="M30.2261 11.3444L24.9709 4.71878C24.7935 4.95224 24.6394 5.20438 24.511 5.47286L29.3856 11.6175C29.6775 11.5545 29.9576 11.4611 30.2261 11.342V11.3444Z" fill="#FFB10F"/>
<path d="M27.749 11.6596L24.0977 7.05573C24.0907 7.15378 24.0884 7.25183 24.0884 7.34988C24.0884 7.47829 24.093 7.60436 24.1047 7.73042L27.0953 11.5008C27.3078 11.5708 27.5249 11.6245 27.7514 11.6596H27.749Z" fill="#FFB10F"/>
<path d="M31.788 10.1724L26.4675 3.46277C26.3437 3.5258 26.2223 3.59584 26.1033 3.67055L31.5032 10.4782C31.6036 10.3802 31.6993 10.2775 31.788 10.1724Z" fill="#FFB10F"/>
<path d="M32.689 8.41914L28.3793 2.98419C28.1295 2.98886 27.8844 3.01454 27.6462 3.0589L32.4508 9.11718C32.5489 8.89306 32.6306 8.66194 32.6913 8.42147L32.689 8.41914Z" fill="#FFB10F"/>
<g style="mix-blend-mode:screen">
<path d="M14.2552 31.2726C13.7743 47.3556 15.2591 50.0568 15.2568 50.0334C15.3291 50.2132 15.2404 50.4163 15.0607 50.4887C14.8786 50.561 14.6685 50.47 14.6008 50.2786C13.3354 46.6903 14.0008 35.0686 14.2552 31.2726Z" fill="#FFB600"/>
</g>
</svg>
