<svg width="25" height="16" viewBox="0 0 25 16" fill="none" xmlns="http://www.w3.org/2000/svg">
<path fill-rule="evenodd" clip-rule="evenodd" d="M6.4844 0.986084C5.93288 0.994705 5.49247 1.44822 5.50002 1.99976V7.83179C5.48217 7.93978 5.48217 8.04997 5.50002 8.15796V13.9998C5.49492 14.3604 5.6844 14.6958 5.99589 14.8776C6.30739 15.0595 6.69265 15.0595 7.00415 14.8776C7.31564 14.6958 7.50512 14.3604 7.50002 13.9998V8.99976H17.5V13.9998C17.4949 14.3604 17.6844 14.6958 17.9959 14.8776C18.3074 15.0595 18.6926 15.0595 19.0041 14.8776C19.3156 14.6958 19.5051 14.3604 19.5 13.9998V8.16773C19.5179 8.05973 19.5179 7.94954 19.5 7.84155V1.99976C19.5037 1.72946 19.3978 1.46917 19.2065 1.2782C19.0152 1.08724 18.7547 0.981862 18.4844 0.986084C17.9329 0.994705 17.4925 1.44822 17.5 1.99976V6.99976H7.50002V1.99976C7.50372 1.72946 7.39784 1.46917 7.20651 1.2782C7.01518 1.08724 6.75469 0.981862 6.4844 0.986084Z" fill="#AAB2BD"/>
<path fill-rule="evenodd" clip-rule="evenodd" d="M3.4844 2.98608C2.93288 2.99471 2.49247 3.44822 2.50002 3.99976V6.99976H1.50002C1.13939 6.99466 0.80394 7.18413 0.622134 7.49563C0.440327 7.80713 0.440327 8.19239 0.622134 8.50388C0.80394 8.81538 1.13939 9.00486 1.50002 8.99976H2.50002V11.9998C2.49492 12.3604 2.6844 12.6958 2.99589 12.8776C3.30739 13.0595 3.69265 13.0595 4.00415 12.8776C4.31565 12.6958 4.50512 12.3604 4.50002 11.9998V8.16773C4.51787 8.05973 4.51787 7.94954 4.50002 7.84155V3.99976C4.50372 3.72946 4.39784 3.46917 4.20651 3.2782C4.01518 3.08724 3.75469 2.98186 3.4844 2.98608ZM21.4844 2.98608C20.9329 2.99471 20.4925 3.44822 20.5 3.99976V7.83179C20.4822 7.93978 20.4822 8.04997 20.5 8.15796V11.9998C20.4949 12.3604 20.6844 12.6958 20.9959 12.8776C21.3074 13.0595 21.6927 13.0595 22.0041 12.8776C22.3156 12.6958 22.5051 12.3604 22.5 11.9998V8.99976H23.5C23.8607 9.00486 24.1961 8.81538 24.3779 8.50388C24.5597 8.19239 24.5597 7.80713 24.3779 7.49563C24.1961 7.18413 23.8607 6.99466 23.5 6.99976H22.5V3.99976C22.5037 3.72946 22.3978 3.46917 22.2065 3.2782C22.0152 3.08724 21.7547 2.98186 21.4844 2.98608Z" fill="#362F41"/>
</svg>
