<svg width="15" height="16" viewBox="0 0 15 16" fill="none" xmlns="http://www.w3.org/2000/svg">
<path fill-rule="evenodd" clip-rule="evenodd" d="M4.78727 4.0067C4.78727 2.50845 6.00182 1.2939 7.50001 1.2939C8.9982 1.2939 10.2127 2.50845 10.2127 4.0067C10.2127 5.50495 8.9982 6.7195 7.50001 6.7195C6.00182 6.7195 4.78727 5.50495 4.78727 4.0067ZM7.50001 -0.00610352C5.28382 -0.00610352 3.48727 1.7905 3.48727 4.0067C3.48727 6.22289 5.28382 8.0195 7.50001 8.0195C9.71619 8.0195 11.5127 6.22289 11.5127 4.0067C11.5127 1.7905 9.71619 -0.00610352 7.50001 -0.00610352ZM1.91303 11.8541C2.91134 11.3295 4.85164 10.5416 7.49998 10.5416C10.1483 10.5416 12.0886 11.3295 13.0869 11.8541C13.3808 12.0086 13.5755 12.3416 13.5755 12.7613C13.5755 13.234 13.3277 13.6057 12.9686 13.7453C11.9199 14.1529 10.0304 14.7062 7.49998 14.7062C4.96954 14.7062 3.08007 14.1529 2.03139 13.7453C1.67225 13.6057 1.42451 13.234 1.42451 12.7613C1.42451 12.3416 1.6192 12.0086 1.91303 11.8541ZM7.49998 9.24161C4.59032 9.24161 2.44244 10.1073 1.30826 10.7034C0.511975 11.1218 0.124512 11.9496 0.124512 12.7613C0.124512 13.6802 0.622515 14.5924 1.56039 14.9569C2.72899 15.4112 4.77887 16.0062 7.49998 16.0062C10.2211 16.0062 12.271 15.4112 13.4396 14.9569C14.3774 14.5924 14.8755 13.6802 14.8755 12.7613C14.8755 11.9496 14.488 11.1218 13.6917 10.7034C12.5575 10.1073 10.4096 9.24161 7.49998 9.24161Z" fill="#362F41"/>
</svg>
