<svg width="26" height="16" viewBox="0 0 26 16" fill="none" xmlns="http://www.w3.org/2000/svg">
<path fill-rule="evenodd" clip-rule="evenodd" d="M6.98458 0.986084C6.43306 0.994705 5.99265 1.44822 6.0002 1.99976V7.83179C5.98235 7.93978 5.98235 8.04997 6.0002 8.15796V13.9998C5.9951 14.3604 6.18458 14.6958 6.49608 14.8776C6.80757 15.0595 7.19283 15.0595 7.50433 14.8776C7.81583 14.6958 8.0053 14.3604 8.0002 13.9998V8.99976H18.0002V13.9998C17.9951 14.3604 18.1846 14.6958 18.4961 14.8776C18.8076 15.0595 19.1928 15.0595 19.5043 14.8776C19.8158 14.6958 20.0053 14.3604 20.0002 13.9998V8.16773C20.0181 8.05973 20.0181 7.94954 20.0002 7.84155V1.99976C20.0039 1.72946 19.898 1.46917 19.7067 1.2782C19.5154 1.08724 19.2549 0.981862 18.9846 0.986084C18.4331 0.994705 17.9927 1.44822 18.0002 1.99976V6.99976H8.0002V1.99976C8.0039 1.72946 7.89803 1.46917 7.70669 1.2782C7.51536 1.08724 7.25487 0.981862 6.98458 0.986084Z" fill="#CCD1D9"/>
<path fill-rule="evenodd" clip-rule="evenodd" d="M3.98446 2.98608C3.43294 2.99471 2.99253 3.44822 3.00008 3.99976V6.99976H2.00008C1.63945 6.99466 1.304 7.18413 1.12219 7.49563C0.940388 7.80713 0.940388 8.19239 1.12219 8.50388C1.304 8.81538 1.63945 9.00486 2.00008 8.99976H3.00008V11.9998C2.99498 12.3604 3.18446 12.6958 3.49596 12.8776C3.80745 13.0595 4.19271 13.0595 4.50421 12.8776C4.81571 12.6958 5.00518 12.3604 5.00008 11.9998V8.16773C5.01793 8.05973 5.01793 7.94954 5.00008 7.84155V3.99976C5.00378 3.72946 4.89791 3.46917 4.70657 3.2782C4.51524 3.08724 4.25475 2.98186 3.98446 2.98608ZM21.9845 2.98608C21.4329 2.99471 20.9925 3.44822 21.0001 3.99976V7.83179C20.9822 7.93978 20.9822 8.04997 21.0001 8.15796V11.9998C20.995 12.3604 21.1845 12.6958 21.496 12.8776C21.8075 13.0595 22.1927 13.0595 22.5042 12.8776C22.8157 12.6958 23.0052 12.3604 23.0001 11.9998V8.99976H24.0001C24.3607 9.00486 24.6962 8.81538 24.878 8.50388C25.0598 8.19239 25.0598 7.80713 24.878 7.49563C24.6962 7.18413 24.3607 6.99466 24.0001 6.99976H23.0001V3.99976C23.0038 3.72946 22.8979 3.46917 22.7066 3.2782C22.5152 3.08724 22.2548 2.98186 21.9845 2.98608Z" fill="white"/>
</svg>
